# xmcd
#
# Track frame offsets: 
#        150
#        25930
#        56525
#        77510
#        104056
#        116388
#        148372
#        196095
#        209189
#        286963
#
# Disc length: 4509 seconds
#
# Revision: 0
# Processed by: cddbd v1.5.2PL0 Copyright (c) Steve Scherf et al.
# Submitted via: ExactAudioCopy v1.0b1
#
DISCID=96119b0a
DTITLE=Richter - Beethoven: Piano Sonatas Nos.27-29
DYEAR=2012
DGENRE=Classical
TTITLE0=No. 27, Op. 90-Mit Lebhaftigkeit und durchaus mit Empfindung u
TTITLE0=nd Ausdruck
TTITLE1=No. 27, Op. 90-Nicht zu geschwind und sehr singbar vorgetragen
TTITLE2=No. 28, Op. 101-Etwas lebhaft und mit der innigsten Empfindung
TTITLE3=No. 28, Op. 101-Lebhaft, marschmsbig
TTITLE4=No. 28, Op. 101-Langsam und sehnsuchtsvoll
TTITLE5=No. 28, Op. 101-Geschwind, doch nicht zu sehr und mit Entschlo
TTITLE5=ssen- heit
TTITLE6=No. 29, Op. 106-Allegro
TTITLE7=No. 29, Op. 106-Scherzo
TTITLE8=No. 29, Op. 106-Adagio sostenuto
TTITLE9=No. 29, Op. 106-Largo - Allegro risoluto
EXTD=
EXTT0=
EXTT1=
EXTT2=
EXTT3=
EXTT4=
EXTT5=
EXTT6=
EXTT7=
EXTT8=
EXTT9=
PLAYORDER=
